<?xml version="1.0" standalone="no"?>
<!DOCTYPE svg PUBLIC "-//W3C//DTD SVG 1.1//EN" "http://www.w3.org/Graphics/SVG/1.1/DTD/svg11.dtd" >
<svg xmlns="http://www.w3.org/2000/svg" xmlns:xlink="http://www.w3.org/1999/xlink" version="1.1">
<metadata></metadata>
<defs>
<font id="oslo_iiregular" horiz-adv-x="839" >
<font-face units-per-em="2048" ascent="1536" descent="-512" />
<missing-glyph horiz-adv-x="500" />
<glyph horiz-adv-x="0" />
<glyph horiz-adv-x="682" />
<glyph unicode=" " d="M817 0h2h-2z" />
<glyph unicode="!" horiz-adv-x="40" d="M0 0v205h20v-205h-20zM0 410v1228h20v-1228h-20z" />
<glyph unicode="&#x22;" horiz-adv-x="225" d="M0 1229l41 409h20l-41 -409h-20zM143 1229l41 409h21l-41 -409h-21z" />
<glyph unicode="#" d="M0 594v20h147l89 390h-236v20h240l47 205h20l-47 -205h389l47 205h21l-47 -205h149v-20h-153l-88 -390h241v-20h-246l-41 -184h-20l41 184h-389l-41 -184h-21l41 184h-143zM168 614h389l88 390h-389z" />
<glyph unicode="$" d="M0 416v6h20v-6q0 -80 30 -151.5t82 -125t123 -85t151 -34.5h4v789q-86 0 -161 32.5t-130.5 89t-87 132.5t-31.5 162q0 84 31.5 158.5t87 131t130.5 89t161 34.5v205h20v-207q80 -4 151.5 -38.5t124 -90t83 -129t30.5 -155.5v-6h-20v6q0 78 -29 147.5t-79 122.5t-117.5 86 t-143.5 37v-789q82 -4 152.5 -37.5t123 -89t83 -129t30.5 -155.5q0 -84 -30.5 -157t-83 -129t-123 -91t-152.5 -39v-205h-20v205h-4q-84 2 -158 35t-129.5 89t-87 131t-31.5 161zM20 1225q0 -82 31 -154t83 -125t124 -85t152 -32v789h-4q-80 -2 -151 -34t-123 -85 t-82 -123.5t-30 -150.5zM430 20q76 4 143.5 37t117.5 86.5t79 123t29 149.5q0 78 -29 146.5t-79 121.5t-117.5 86t-143.5 37v-787z" />
<glyph unicode="%" horiz-adv-x="634" d="M0 0l594 1638h20l-594 -1638h-20zM0 1438q0 43 16.5 82t44 67.5t64.5 45t80 16.5t80 -16.5t64.5 -45t44 -67.5t16.5 -82t-16.5 -82t-44 -66.5t-64.5 -44t-80 -16.5t-80 16.5t-64.5 44t-44 66.5t-16.5 82zM20 1438q0 -39 14.5 -74t39 -60.5t58.5 -40t73 -14.5t72.5 14.5 t58 40t39 60.5t14.5 74t-14.5 73.5t-39 60t-58 41t-72.5 15.5t-73 -15.5t-58.5 -41t-39 -60t-14.5 -73.5zM205 209q0 43 16.5 82t44 67.5t64.5 45t80 16.5t79.5 -16.5t64.5 -45t44 -67.5t16 -82t-16 -82t-44 -66.5t-64.5 -44t-79.5 -16.5t-80 16.5t-64.5 44t-44 66.5 t-16.5 82zM225 209q0 -39 14.5 -74t39 -60.5t58.5 -40t73 -14.5t72.5 14.5t58 40t39 60.5t14.5 74t-14.5 73.5t-39 60.5t-58 41t-72.5 15t-73 -15t-58.5 -41t-39 -60.5t-14.5 -73.5z" />
<glyph unicode="&#x26;" d="M0 414q0 74 24.5 140.5t67.5 119.5t101.5 91t125.5 54q-68 14 -126 52t-101 91.5t-67.5 120t-24.5 140.5q0 86 33 161.5t88 132t130 89t159 32.5q82 0 155.5 -31.5t129 -85t88 -127t36.5 -155.5v-10h-20q0 80 -32 151.5t-84 123.5t-123 83t-150 31q-80 0 -152 -31 t-124 -85t-83 -125.5t-31 -153.5q0 -84 31 -156t84 -125t124 -83t151 -30v-20q-80 0 -152 -30.5t-124 -85t-83 -126t-31 -153.5t31 -154t83 -125t124 -84t152 -31q78 0 147.5 29t121.5 79t84 118.5t36 146.5v416h-185v20h205v-829h-20v283q-20 -61 -58.5 -113.5t-89.5 -90.5 t-112.5 -58.5t-128.5 -20.5q-84 0 -159 33t-130 88t-88 131t-33 162z" />
<glyph unicode="'" horiz-adv-x="81" d="M0 1229l41 409h20l-41 -409h-20z" />
<glyph unicode="(" horiz-adv-x="174" d="M0 815q0 147 10 283.5t28.5 256.5t44.5 217t56 169h15v-4q-31 -68 -55.5 -165t-42 -216t-27 -256.5t-9.5 -284.5t9.5 -284.5t27 -255t41 -214t54.5 -163.5h-15q-31 70 -56.5 168t-43 215.5t-27.5 253t-10 280.5z" />
<glyph unicode=")" horiz-adv-x="174" d="M0 -98q31 68 55.5 165t42 215.5t26.5 256t9 284.5t-9 284.5t-26.5 255.5t-41 214t-54.5 164h14q31 -72 56.5 -169t43 -215t28 -253t10.5 -281q0 -147 -10.5 -283.5t-29 -256t-44 -218t-56.5 -167.5h-14v4z" />
<glyph unicode="*" horiz-adv-x="612" d="M0 1190l6 20l279 -88v293h20v-293l281 88l6 -20l-279 -88l189 -223l-17 -13l-190 221l-189 -221l-16 13l186 223z" />
<glyph unicode="+" d="M0 809v20h399v400h21v-400h399v-20h-399v-399h-21v399h-399z" />
<glyph unicode="," horiz-adv-x="81" d="M0 -205l41 410h20l-41 -410h-20z" />
<glyph unicode="-" d="M0 799v20h819v-20h-819z" />
<glyph unicode="." horiz-adv-x="40" d="M0 0v205h20v-205h-20z" />
<glyph unicode="/" horiz-adv-x="225" d="M0 0l184 1638h21l-185 -1638h-20z" />
<glyph unicode="0" d="M0 416v807q0 139 80 247l-80 168h27l71 -147q55 66 134 105.5t174 41.5q86 0 161.5 -32.5t131 -89t88 -132t32.5 -161.5v-807q0 -72 -21.5 -134.5t-60.5 -115.5l82 -166h-26l-72 145q-57 -68 -138 -106.5t-177 -38.5q-84 2 -158 35t-129.5 89t-87 131t-31.5 161zM20 416 q0 -82 31 -154t84 -126t124 -85t153 -31q92 0 168.5 40t130.5 108l-621 1280q-70 -98 -70 -225v-807zM109 1470l618 -1282q35 49 53.5 106.5t18.5 121.5v807q0 80 -31 151.5t-83 124.5t-122.5 85t-150.5 34q-92 -2 -171 -42t-132 -106z" />
<glyph unicode="1" d="M0 0v20h399v1598h-399v20h420v-1618h399v-20h-819z" />
<glyph unicode="2" d="M0 0l725 1004q33 47 51.5 104t22.5 131q-4 78 -36 147.5t-85 121t-123 81t-149 29.5h-9q-78 -4 -146.5 -36t-118.5 -84t-79.5 -121.5t-32.5 -147.5h-20q2 86 36 161.5t92 132t136 87t164 28.5q80 -4 149.5 -36.5t122 -86t84 -124t35.5 -150.5v-6q0 -66 -19.5 -126 t-54.5 -112l-706 -977h780v-20h-819z" />
<glyph unicode="3" d="M0 410h20q0 -82 31 -153t84 -123t124 -83t151 -31t151.5 31t123.5 84t83 125t31 154t-31 153.5t-83 126t-124 85t-151 30.5v20h16q78 2 145.5 34t118.5 85t80 124t29 151q0 82 -31 153.5t-83 125.5t-124 85t-151 31q-80 0 -151 -31t-123 -83t-84 -123.5t-32 -151.5h-20 v10q2 82 36 155.5t89 127t128 85t157 31.5t158.5 -32.5t130 -89t88 -132t32.5 -161.5q0 -74 -24.5 -140.5t-67.5 -120t-101.5 -91t-125.5 -52.5q68 -16 126 -54t101 -91t67.5 -120t24.5 -140q0 -86 -32.5 -162t-88 -131t-130 -88t-158.5 -33t-159 31.5t-130 87t-88 130.5 t-33 161z" />
<glyph unicode="4" d="M0 399l610 1239h21v-1218h188v-21h-188v-399h-21v399h-610zM31 420h579v1177z" />
<glyph unicode="5" d="M0 416v6h20v-6q0 -82 31 -154t84 -126t125 -85t154 -31q80 2 149.5 34t121.5 85.5t83 125t31 151.5v397q0 80 -31 150.5t-83 125t-121.5 86t-149.5 33.5h-2h-6q-80 -2 -151 -33.5t-123 -86t-82 -125t-30 -150.5h-20v16v809h819v-20h-799v-678q41 125 146.5 206t245.5 83 q84 -2 158.5 -35t130 -89t87 -131t31.5 -161v-397q0 -86 -32.5 -162t-88 -132t-131 -89t-161.5 -33q-84 2 -158 35t-129.5 89t-87 131t-31.5 161z" />
<glyph unicode="6" d="M0 416v807q0 86 31.5 160.5t88 131t131.5 90t161 33.5h2q84 -2 157.5 -34.5t129 -90t87 -132t31.5 -158.5v-6h-20v6q0 80 -31 150.5t-83 124.5t-121.5 86t-149.5 34h-2q-82 0 -153 -32t-124 -86t-84 -125.5t-31 -151.5v-283q41 125 146.5 206t245.5 83q82 -2 154.5 -33 t128 -85t88 -126t36.5 -154v-415q0 -84 -31.5 -160t-87 -133t-130 -90t-158.5 -33q-86 0 -161 33t-131.5 89t-88 132t-31.5 162zM20 416q0 -82 31 -154t84 -126t124 -85t153 -31q80 0 150.5 32t122.5 86.5t83 126t31 151.5v397q0 82 -31 153.5t-84 125t-125 85t-153 31.5 q-78 -2 -147 -31.5t-121 -81t-83.5 -120t-34.5 -146.5v-413z" />
<glyph unicode="7" d="M0 0l786 1618h-766v-389h-20v409h819l-792 -1638h-27z" />
<glyph unicode="8" d="M0 414q0 74 24.5 140.5t67.5 119.5t101.5 91t125.5 54q-68 14 -126 52t-101 91.5t-67.5 120t-24.5 140.5q0 86 33 161.5t88 132t130 89t159 32.5t158.5 -32.5t130 -89t88 -132t32.5 -161.5q0 -74 -24.5 -140.5t-67.5 -120t-101.5 -91t-125.5 -52.5q68 -16 126 -54 t101 -91t67.5 -120t24.5 -140q0 -86 -32.5 -162t-88 -131t-130 -88t-158.5 -33t-159 33t-130 88t-88 131t-33 162zM20 414q0 -82 31 -154t83 -125t124 -84t152 -31t151.5 31t123.5 84t83 125t31 154t-31 153.5t-83 126t-124 85t-151 30.5h-17q-78 -4 -146.5 -36t-118.5 -85 t-79 -123.5t-29 -150.5zM20 1223q0 -80 29 -151t79 -124t118.5 -85t146.5 -34h17h16q78 2 145.5 34t118.5 85t80 124t29 151q0 82 -31 153.5t-83 125.5t-124 85t-151 31q-80 0 -152 -31t-124 -85t-83 -125.5t-31 -153.5z" />
<glyph unicode="9" d="M0 0l655 887q-51 -37 -114.5 -57.5t-130.5 -20.5q-86 0 -161 32.5t-130.5 88t-87 131.5t-31.5 162t31.5 161.5t87 132t130.5 89t161 32.5t160.5 -32.5t130 -89t87 -132t31.5 -161.5q0 -74 -19.5 -140.5t-62.5 -119.5l-710 -963h-27zM20 1223q0 -82 31 -154t83 -125 t123 -84t153 -31t152.5 31t122.5 84t83 125t31 154t-31 153.5t-83 124.5t-122.5 85t-152.5 32t-153 -32t-123 -85t-83 -124.5t-31 -153.5z" />
<glyph unicode=":" horiz-adv-x="40" d="M0 0v205h20v-205h-20zM0 614v205h20v-205h-20z" />
<glyph unicode=";" horiz-adv-x="81" d="M0 -205l41 410h20l-41 -410h-20zM41 614v205h20v-205h-20z" />
<glyph unicode="&#x3c;" horiz-adv-x="133" d="M0 614l92 410h21l-93 -410l93 -409h-21z" />
<glyph unicode="=" d="M0 594v20h819v-20h-819zM0 1004v20h819v-20h-819z" />
<glyph unicode="&#x3e;" horiz-adv-x="133" d="M0 205l92 409l-92 410h20l93 -410l-93 -409h-20z" />
<glyph unicode="?" d="M0 1229q0 84 33 158.5t89 130t130 88t158 32.5t158.5 -32.5t130 -89t88 -132t32.5 -161.5t-31.5 -160t-86 -130t-127 -89t-154.5 -35v-399h-21v419q82 -2 155 28t127 83t86 126t32 157q0 82 -31 153.5t-83 125.5t-124 85t-151 31q-80 0 -151 -31t-123 -83t-84 -123.5 t-32 -151.5h-20zM399 0v205h21v-205h-21z" />
<glyph unicode="@" d="M0 621v397q0 84 31.5 158.5t87 132t129.5 90.5t158 35q86 0 161.5 -33t131 -89.5t88 -132t32.5 -161.5v-498q-2 -47 -34.5 -78.5t-77.5 -31.5q-47 0 -79 31.5t-34 76.5v10q-25 -53 -75 -85.5t-109 -32.5q-43 0 -80 16t-64.5 45t-44 68t-16.5 82v407q0 43 16.5 82t44 67.5 t64.5 45t80 16.5t79.5 -16.5t64.5 -45t44 -67.5t16 -82v-506q0 -39 27 -65.5t66 -26.5t65.5 26.5t26.5 65.5v496q0 80 -31 151.5t-83 125t-122.5 85t-150.5 33.5q-82 0 -153 -31.5t-124 -86t-84 -126t-31 -151.5v-397q0 -82 31 -154t84 -126t124 -85t153 -31h202v-20h-208 q-84 0 -158 32.5t-129.5 90t-87 132.5t-31.5 161zM225 621q0 -39 14.5 -74t39 -60.5t58.5 -41t73 -15.5q37 0 69.5 14.5t57 39t40 57t17.5 71.5v416q0 39 -14.5 74t-39 60.5t-58 41t-72.5 15.5t-73 -15.5t-58.5 -41t-39 -60.5t-14.5 -74v-407z" />
<glyph unicode="A" d="M0 0l399 1638h21l399 -1638h-22l-199 809h-379l-196 -809h-23zM225 829h369l-184 758z" />
<glyph unicode="B" d="M0 0v1638h403q86 0 162 -32.5t132.5 -89t89 -132t32.5 -161.5q0 -74 -24.5 -140.5t-68.5 -120t-103.5 -91t-128.5 -52.5q70 -16 129 -53t103 -91t68.5 -121t24.5 -140q0 -86 -32.5 -162t-89 -131t-132.5 -88t-162 -33h-403zM20 20h383q82 0 154 31t125 84t85 125t32 154 t-32 153.5t-85 124.5t-125 85t-154 32h-383v-789zM20 829h383q82 0 154 31t125 84t85 125t32 154t-32 153.5t-85 124.5t-125 85t-154 32h-383v-789z" />
<glyph unicode="C" d="M0 416v807q0 84 31.5 158.5t87 132t129.5 90t158 34.5q86 0 161.5 -32.5t131 -89t88 -132t32.5 -161.5v-97h-20v97q0 80 -31 151.5t-83 124.5t-122.5 85t-150.5 34q-82 0 -153 -32t-124 -86t-84 -125.5t-31 -151.5v-807q0 -82 31 -154t84 -126t124 -85t153 -31 q80 0 150.5 32t122.5 86.5t83 126t31 151.5v96h20v-96q0 -86 -31.5 -161t-87 -131t-129 -89t-157.5 -35h-8q-84 2 -158 35t-129.5 89t-87 131t-31.5 161z" />
<glyph unicode="D" d="M0 0v1638h414q84 -2 157.5 -34.5t129 -90t87 -132t31.5 -158.5v-807q0 -86 -31.5 -161t-87 -131t-129 -89t-157.5 -35h-414zM20 20h390q80 0 151.5 31t123.5 85t83 126t31 154v807q0 80 -31 150.5t-83 124.5t-124 86t-151 34h-390v-1598z" />
<glyph unicode="E" d="M0 0v1638h819v-20h-799v-789h799v-20h-799v-789h799v-20h-819z" />
<glyph unicode="F" d="M0 0v1638h819v-20h-799v-789h799v-20h-799v-809h-20z" />
<glyph unicode="G" d="M0 416v807q0 84 31.5 158.5t87 132t129.5 90t158 34.5q86 0 161.5 -32.5t131 -89t88 -132t32.5 -161.5v-97h-20v97q0 80 -31 151.5t-83 124.5t-122.5 85t-150.5 34q-82 0 -153 -32t-124 -86t-84 -125.5t-31 -151.5v-807q0 -82 31 -154t84 -126t124 -85t153 -31 q80 0 150.5 32t122.5 86.5t83 126t31 151.5v393h-389v20h409v-829h-20v285q-20 -61 -57 -113.5t-87.5 -90.5t-112 -59.5t-128.5 -21.5h-8q-84 2 -158 35t-129.5 89t-87 131t-31.5 161z" />
<glyph unicode="H" d="M0 0v1638h20v-809h779v809h20v-1638h-20v809h-779v-809h-20z" />
<glyph unicode="I" d="M0 0v20h399v1598h-399v20h819v-20h-399v-1598h399v-20h-819z" />
<glyph unicode="J" d="M0 410h20q0 -80 32 -152t85 -124t124 -83t151 -31t150.5 32t122.5 86.5t83 126t31 151.5v1202h-387v20h407v-1222q0 -86 -31.5 -161t-87 -131t-129 -89t-157.5 -35h-8q-84 2 -158 34t-128 87t-87 130t-33 159z" />
<glyph unicode="K" d="M0 0v1638h20v-804l768 804h29l-784 -823l786 -815h-31l-768 801v-801h-20z" />
<glyph unicode="L" d="M0 0v1638h20v-1618h799v-20h-819z" />
<glyph unicode="M" d="M0 0v1638h23l387 -798l387 798h22v-1638h-20v1595l-389 -800l-390 800v-1595h-20z" />
<glyph unicode="N" d="M0 0v1638h23l776 -1597v1597h20v-1638h-24l-775 1595v-1595h-20z" />
<glyph unicode="O" d="M0 416v807q0 84 31.5 158.5t87 132t129.5 90t158 34.5q86 0 161.5 -32.5t131 -89t88 -132t32.5 -161.5v-807q0 -86 -31.5 -161t-87 -131t-129 -89t-157.5 -35h-8q-84 2 -158 35t-129.5 89t-87 131t-31.5 161zM20 416q0 -82 31 -154t84 -126t124 -85t153 -31 q80 0 150.5 32t122.5 86.5t83 126t31 151.5v807q0 80 -31 151.5t-83 124.5t-122.5 85t-150.5 34q-82 0 -153 -32t-124 -86t-84 -125.5t-31 -151.5v-807z" />
<glyph unicode="P" d="M0 0v1638h403q86 0 162 -32.5t132.5 -89t89 -132t32.5 -161.5t-32.5 -162t-89 -131.5t-132.5 -88t-162 -32.5h-383v-809h-20zM20 829h383q82 0 154 31t125 84t85 125t32 154t-32 153.5t-85 124.5t-125 85t-154 32h-383v-789z" />
<glyph unicode="Q" d="M0 416v807q0 84 31.5 158.5t87 132t129.5 90t158 34.5q84 0 157.5 -31.5t129 -85t89 -127t37.5 -155.5v-840q-4 -80 -33.5 -148.5t-80.5 -121.5l131 -129h-31l-115 113q-53 -53 -124.5 -82t-151.5 -31h-8q-84 2 -158 35t-129.5 89t-87 131t-31.5 161zM20 416 q0 -82 31 -154t84 -126t124 -85t153 -31q76 0 143.5 29t120.5 80l-281 281h29l266 -267q49 53 79 124t30 149v807q0 80 -31 151.5t-83 124.5t-122.5 85t-150.5 34q-82 0 -153 -32t-124 -86t-84 -125.5t-31 -151.5v-807z" />
<glyph unicode="R" horiz-adv-x="843" d="M0 0v1638h403q86 0 162 -32.5t132.5 -89t89 -132t32.5 -161.5q0 -84 -30.5 -157t-84 -128t-125 -90t-153.5 -39l397 -809h-24l-396 809h-383v-809h-20zM20 829h383q82 0 154 31t125 84t85 125t32 154t-32 153.5t-85 124.5t-125 85t-154 32h-383v-789z" />
<glyph unicode="S" d="M0 416v6h20v-6q0 -80 30 -151.5t82 -125t123 -85t151 -34.5h8q80 2 149.5 34t121.5 85.5t83 125t31 151.5t-31 150.5t-83 123.5t-121.5 85t-149.5 34q-86 0 -162 32.5t-131 89t-88 132.5t-33 162t31.5 160.5t88 131t131.5 89t161 32.5h2h2q84 -2 157.5 -35.5t128 -90 t86 -131t31.5 -158.5v-6h-20v6q0 80 -31 150.5t-83 124.5t-121.5 86t-149.5 34h-2h-6q-80 -2 -151 -34t-123 -85t-82 -123.5t-30 -150.5q0 -82 31 -154t83 -125t124 -85t152 -32h2h2h-2q84 -2 158.5 -34.5t130 -88t87 -130t31.5 -160.5q0 -84 -30.5 -158t-85 -130t-127 -91 t-154.5 -37h-8h-8q-84 2 -158 35t-129.5 89t-87 131t-31.5 161z" />
<glyph unicode="T" d="M0 1618v20h819v-20h-399v-1618h-21v1618h-399z" />
<glyph unicode="U" d="M0 416v1222h20v-1222q0 -82 31 -154t84 -126t125 -85t152 -31t150.5 32t122.5 86.5t83 126t31 151.5v1222h20v-1222q0 -86 -31.5 -161t-87 -131t-129 -89t-157.5 -35h-8q-84 2 -158 35t-129.5 89t-87 131t-31.5 161z" />
<glyph unicode="V" d="M0 1638h23l387 -1587l387 1587h22l-399 -1638h-21z" />
<glyph unicode="W" d="M0 0v1638h20v-1595l390 801l389 -801v1595h20v-1638h-22l-387 799l-387 -799h-23z" />
<glyph unicode="X" d="M0 0l397 817l-397 821h23l387 -794l387 794h22l-397 -821l397 -817h-24l-385 793l-385 -793h-25z" />
<glyph unicode="Y" d="M0 1638h23l387 -794l387 794h22l-399 -825v-813h-21v813z" />
<glyph unicode="Z" d="M0 0l786 1618h-784v20h817l-784 -1618h784v-20h-819z" />
<glyph unicode="[" horiz-adv-x="225" d="M0 -205v2048h205v-20h-185v-2007h185v-21h-205z" />
<glyph unicode="\" horiz-adv-x="225" d="M0 1638h20l185 -1638h-21z" />
<glyph unicode="]" horiz-adv-x="225" d="M0 -184h184v2007h-184v20h205v-2048h-205v21z" />
<glyph unicode="^" horiz-adv-x="430" d="M0 1782v20l205 41l205 -41v-20l-205 41z" />
<glyph unicode="_" d="M0 -205h819v-20h-819v20z" />
<glyph unicode="`" horiz-adv-x="430" d="M0 1823v20l410 -41v-20z" />
<glyph unicode="a" d="M0 0l399 1638h21l399 -1638h-22l-199 809h-379l-196 -809h-23zM225 829h369l-184 758z" />
<glyph unicode="b" d="M0 0v1638h403q86 0 162 -32.5t132.5 -89t89 -132t32.5 -161.5q0 -74 -24.5 -140.5t-68.5 -120t-103.5 -91t-128.5 -52.5q70 -16 129 -53t103 -91t68.5 -121t24.5 -140q0 -86 -32.5 -162t-89 -131t-132.5 -88t-162 -33h-403zM20 20h383q82 0 154 31t125 84t85 125t32 154 t-32 153.5t-85 124.5t-125 85t-154 32h-383v-789zM20 829h383q82 0 154 31t125 84t85 125t32 154t-32 153.5t-85 124.5t-125 85t-154 32h-383v-789z" />
<glyph unicode="c" d="M0 416v807q0 84 31.5 158.5t87 132t129.5 90t158 34.5q86 0 161.5 -32.5t131 -89t88 -132t32.5 -161.5v-97h-20v97q0 80 -31 151.5t-83 124.5t-122.5 85t-150.5 34q-82 0 -153 -32t-124 -86t-84 -125.5t-31 -151.5v-807q0 -82 31 -154t84 -126t124 -85t153 -31 q80 0 150.5 32t122.5 86.5t83 126t31 151.5v96h20v-96q0 -86 -31.5 -161t-87 -131t-129 -89t-157.5 -35h-8q-84 2 -158 35t-129.5 89t-87 131t-31.5 161z" />
<glyph unicode="d" d="M0 0v1638h414q84 -2 157.5 -34.5t129 -90t87 -132t31.5 -158.5v-807q0 -86 -31.5 -161t-87 -131t-129 -89t-157.5 -35h-414zM20 20h390q80 0 151.5 31t123.5 85t83 126t31 154v807q0 80 -31 150.5t-83 124.5t-124 86t-151 34h-390v-1598z" />
<glyph unicode="e" d="M0 0v1638h819v-20h-799v-789h799v-20h-799v-789h799v-20h-819z" />
<glyph unicode="f" d="M0 0v1638h819v-20h-799v-789h799v-20h-799v-809h-20z" />
<glyph unicode="g" d="M0 416v807q0 84 31.5 158.5t87 132t129.5 90t158 34.5q86 0 161.5 -32.5t131 -89t88 -132t32.5 -161.5v-97h-20v97q0 80 -31 151.5t-83 124.5t-122.5 85t-150.5 34q-82 0 -153 -32t-124 -86t-84 -125.5t-31 -151.5v-807q0 -82 31 -154t84 -126t124 -85t153 -31 q80 0 150.5 32t122.5 86.5t83 126t31 151.5v393h-389v20h409v-829h-20v285q-20 -61 -57 -113.5t-87.5 -90.5t-112 -59.5t-128.5 -21.5h-8q-84 2 -158 35t-129.5 89t-87 131t-31.5 161z" />
<glyph unicode="h" d="M0 0v1638h20v-809h779v809h20v-1638h-20v809h-779v-809h-20z" />
<glyph unicode="i" d="M0 0v20h399v1598h-399v20h819v-20h-399v-1598h399v-20h-819z" />
<glyph unicode="j" d="M0 410h20q0 -80 32 -152t85 -124t124 -83t151 -31t150.5 32t122.5 86.5t83 126t31 151.5v1202h-387v20h407v-1222q0 -86 -31.5 -161t-87 -131t-129 -89t-157.5 -35h-8q-84 2 -158 34t-128 87t-87 130t-33 159z" />
<glyph unicode="k" d="M0 0v1638h20v-804l768 804h29l-784 -823l786 -815h-31l-768 801v-801h-20z" />
<glyph unicode="l" d="M0 0v1638h20v-1618h799v-20h-819z" />
<glyph unicode="m" d="M0 0v1638h23l387 -798l387 798h22v-1638h-20v1595l-389 -800l-390 800v-1595h-20z" />
<glyph unicode="n" d="M0 0v1638h23l776 -1597v1597h20v-1638h-24l-775 1595v-1595h-20z" />
<glyph unicode="o" d="M0 416v807q0 84 31.5 158.5t87 132t129.5 90t158 34.5q86 0 161.5 -32.5t131 -89t88 -132t32.5 -161.5v-807q0 -86 -31.5 -161t-87 -131t-129 -89t-157.5 -35h-8q-84 2 -158 35t-129.5 89t-87 131t-31.5 161zM20 416q0 -82 31 -154t84 -126t124 -85t153 -31 q80 0 150.5 32t122.5 86.5t83 126t31 151.5v807q0 80 -31 151.5t-83 124.5t-122.5 85t-150.5 34q-82 0 -153 -32t-124 -86t-84 -125.5t-31 -151.5v-807z" />
<glyph unicode="p" d="M0 0v1638h403q86 0 162 -32.5t132.5 -89t89 -132t32.5 -161.5t-32.5 -162t-89 -131.5t-132.5 -88t-162 -32.5h-383v-809h-20zM20 829h383q82 0 154 31t125 84t85 125t32 154t-32 153.5t-85 124.5t-125 85t-154 32h-383v-789z" />
<glyph unicode="q" d="M0 416v807q0 84 31.5 158.5t87 132t129.5 90t158 34.5q84 0 157.5 -31.5t129 -85t89 -127t37.5 -155.5v-840q-4 -80 -33.5 -148.5t-80.5 -121.5l131 -129h-31l-115 113q-53 -53 -124.5 -82t-151.5 -31h-8q-84 2 -158 35t-129.5 89t-87 131t-31.5 161zM20 416 q0 -82 31 -154t84 -126t124 -85t153 -31q76 0 143.5 29t120.5 80l-281 281h29l266 -267q49 53 79 124t30 149v807q0 80 -31 151.5t-83 124.5t-122.5 85t-150.5 34q-82 0 -153 -32t-124 -86t-84 -125.5t-31 -151.5v-807z" />
<glyph unicode="r" horiz-adv-x="843" d="M0 0v1638h403q86 0 162 -32.5t132.5 -89t89 -132t32.5 -161.5q0 -84 -30.5 -157t-84 -128t-125 -90t-153.5 -39l397 -809h-24l-396 809h-383v-809h-20zM20 829h383q82 0 154 31t125 84t85 125t32 154t-32 153.5t-85 124.5t-125 85t-154 32h-383v-789z" />
<glyph unicode="s" d="M0 416v6h20v-6q0 -80 30 -151.5t82 -125t123 -85t151 -34.5h8q80 2 149.5 34t121.5 85.5t83 125t31 151.5t-31 150.5t-83 123.5t-121.5 85t-149.5 34q-86 0 -162 32.5t-131 89t-88 132.5t-33 162t31.5 160.5t88 131t131.5 89t161 32.5h2h2q84 -2 157.5 -35.5t128 -90 t86 -131t31.5 -158.5v-6h-20v6q0 80 -31 150.5t-83 124.5t-121.5 86t-149.5 34h-2h-6q-80 -2 -151 -34t-123 -85t-82 -123.5t-30 -150.5q0 -82 31 -154t83 -125t124 -85t152 -32h2h2h-2q84 -2 158.5 -34.5t130 -88t87 -130t31.5 -160.5q0 -84 -30.5 -158t-85 -130t-127 -91 t-154.5 -37h-8h-8q-84 2 -158 35t-129.5 89t-87 131t-31.5 161z" />
<glyph unicode="t" d="M0 1618v20h819v-20h-399v-1618h-21v1618h-399z" />
<glyph unicode="u" d="M0 416v1222h20v-1222q0 -82 31 -154t84 -126t125 -85t152 -31t150.5 32t122.5 86.5t83 126t31 151.5v1222h20v-1222q0 -86 -31.5 -161t-87 -131t-129 -89t-157.5 -35h-8q-84 2 -158 35t-129.5 89t-87 131t-31.5 161z" />
<glyph unicode="v" d="M0 1638h23l387 -1587l387 1587h22l-399 -1638h-21z" />
<glyph unicode="w" d="M0 0v1638h20v-1595l390 801l389 -801v1595h20v-1638h-22l-387 799l-387 -799h-23z" />
<glyph unicode="x" d="M0 0l397 817l-397 821h23l387 -794l387 794h22l-397 -821l397 -817h-24l-385 793l-385 -793h-25z" />
<glyph unicode="y" d="M0 1638h23l387 -794l387 794h22l-399 -825v-813h-21v813z" />
<glyph unicode="z" d="M0 0l786 1618h-784v20h817l-784 -1618h784v-20h-819z" />
<glyph unicode="{" horiz-adv-x="225" d="M0 809v20q61 51 61 140v469q0 72 40 126t104 74v-22q-53 -20 -88 -68.5t-35 -109.5v-469q0 -94 -57 -150q29 -29 43 -67.5t14 -81.5v-469q0 -61 35 -110.5t88 -70.5v-20q-63 18 -103.5 73.5t-40.5 127.5v469q0 84 -61 139z" />
<glyph unicode="|" horiz-adv-x="40" d="M0 0v1638h20v-1638h-20z" />
<glyph unicode="}" horiz-adv-x="225" d="M0 0v20q53 20 88 69.5t35 111.5v469q0 43 14.5 82t42.5 67q-57 55 -57 150v469q0 61 -35 109t-88 69v22q63 -20 103 -74.5t40 -125.5v-469q0 -88 62 -140v-20q-61 -55 -62 -139v-469q0 -72 -40 -127.5t-103 -73.5z" />
<glyph unicode="~" horiz-adv-x="477" d="M0 1839v21q59 -23 121.5 -25t128.5 18q53 14 105.5 14.5t101.5 -9.5v-21q-99 25 -199 -2q-66 -23 -132.5 -20.5t-125.5 24.5z" />
<glyph unicode="&#xa0;" d="M817 0h2h-2z" />
<glyph unicode="&#xa1;" horiz-adv-x="40" d="M0 0h20v1228h-20v-1228zM0 1433h20v205h-20v-205z" />
<glyph unicode="&#xa2;" horiz-adv-x="430" d="M0 621v407q0 43 16.5 82t44 67.5t64.5 45t80 16.5v195h20v-197q78 -10 131.5 -68.5t53.5 -140.5v-4h-21v4q0 72 -47 126t-117 63v-787q70 8 117 62.5t47 128.5v4h21v-4q0 -84 -53.5 -143.5t-131.5 -67.5v-205h-20v205q-43 0 -80 16t-64.5 45t-44 68t-16.5 82zM20 621 q0 -39 14.5 -74t39 -60.5t58.5 -41t73 -15.5v789q-39 0 -73 -15.5t-58.5 -41t-39 -60.5t-14.5 -74v-407z" />
<glyph unicode="&#xa3;" d="M0 0v1223q0 86 33 161.5t88 132t131 89t162 32.5q84 -2 157.5 -34.5t129 -89t87 -131t31.5 -160.5v-6h-20v6q0 82 -31 153.5t-84 124.5t-125 85t-153 32q-80 -2 -151 -34t-123 -85t-82 -124.5t-30 -151.5v-1203h799v-20h-819zM8 815v21h811v-21h-811z" />
<glyph unicode="&#xa5;" horiz-adv-x="849" d="M0 1638h23l387 -794l387 794h22l-397 -819h407v-20h-409v-389h409v-21h-409v-389h-21v389h-389v21h389v389h-389v20h385z" />
<glyph unicode="&#xa8;" horiz-adv-x="327" d="M0 1423v21h102v-21h-102zM205 1423v21h102v-21h-102z" />
<glyph unicode="&#xa9;" d="M0 621v397q0 84 31.5 158.5t87 132t129.5 90.5t158 35q86 0 161.5 -33t131 -89.5t88 -132t32.5 -161.5v-397q0 -86 -32.5 -162t-88 -132.5t-131 -89t-161.5 -32.5q-84 2 -158 34.5t-129.5 89t-87 131.5t-31.5 161zM20 621q0 -82 31 -154t84 -126t124 -85t153 -31 q80 0 150.5 32t122.5 86t83 126t31 152v397q0 80 -31 151.5t-83 125t-122.5 85t-150.5 33.5q-82 0 -153 -31.5t-124 -86t-84 -126t-31 -151.5v-397zM205 621v407q0 43 16.5 82t44 67.5t64.5 45t80 16.5t79.5 -16.5t64.5 -45t44 -67.5t16 -82v-4h-20v4q0 39 -14.5 74 t-39 60.5t-58 41t-72.5 15.5t-73 -15.5t-58.5 -41t-39 -60.5t-14.5 -74v-407q0 -39 14.5 -74t39 -60.5t58.5 -41t73 -15.5t72.5 15.5t58 41t39 60.5t14.5 74v4h20v-4q0 -43 -16 -82t-44 -68t-64.5 -45t-79.5 -16t-80 16t-64.5 45t-44 68t-16.5 82z" />
<glyph unicode="&#xaa;" horiz-adv-x="440" d="M0 819l98 400l4 20l99 399h20l199 -819h-23l-96 400h-180l-98 -400h-23zM125 1239h170l-84 348z" />
<glyph unicode="&#xab;" horiz-adv-x="337" d="M0 614l92 410h21l-93 -410l93 -409h-21zM205 614l92 410h20l-92 -410l92 -409h-20z" />
<glyph unicode="&#xad;" d="M0 799v20h819v-20h-819z" />
<glyph unicode="&#xae;" d="M0 621v397q0 84 31.5 158.5t87 132t129.5 90.5t158 35q86 0 161.5 -33t131 -89.5t88 -132t32.5 -161.5v-397q0 -86 -32.5 -162t-88 -132.5t-131 -89t-161.5 -32.5q-84 2 -158 34.5t-129.5 89t-87 131.5t-31.5 161zM20 621q0 -82 31 -154t84 -126t124 -85t153 -31 q80 0 150.5 32t122.5 86t83 126t31 152v397q0 80 -31 151.5t-83 125t-122.5 85t-150.5 33.5q-82 0 -153 -31.5t-124 -86t-84 -126t-31 -151.5v-397zM205 410v819h205q43 0 79.5 -16.5t64.5 -44t44 -66.5t16 -82t-15 -81t-42 -66.5t-63.5 -45t-77.5 -18.5l196 -399h-24 l-195 399h-168v-399h-20zM225 829h185q39 0 72.5 15.5t58 41t39 60.5t14.5 74t-14.5 73.5t-39 60.5t-58 40t-72.5 14h-185v-379z" />
<glyph unicode="&#xb0;" horiz-adv-x="430" d="M0 1438q0 43 16.5 82t44 67.5t64.5 45t80 16.5t80 -16.5t64.5 -45t44 -67.5t16.5 -82t-16.5 -82t-44 -66.5t-64.5 -44t-80 -16.5t-80 16.5t-64.5 44t-44 66.5t-16.5 82zM20 1438q0 -39 14.5 -74t39 -60.5t58.5 -40t73 -14.5t72.5 14.5t58 40t39 60.5t14.5 74t-14.5 73.5 t-39 60t-58 41t-72.5 15.5t-73 -15.5t-58.5 -41t-39 -60t-14.5 -73.5z" />
<glyph unicode="&#xb1;" d="M0 399v21h819v-21h-819zM0 809v20h399v195h21v-195h399v-20h-399v-195h-21v195h-399z" />
<glyph unicode="&#xb2;" horiz-adv-x="430" d="M0 819v10l348 484q16 23 28.5 52.5t12.5 61.5q0 39 -14.5 74t-39 60.5t-58 41t-72.5 15.5q-78 0 -130 -54.5t-55 -131.5h-20q0 43 16.5 80.5t44 65.5t64.5 44t80 16h8q82 -4 139.5 -64.5t57.5 -146.5v-18q-6 -63 -45 -113l-328 -456h373v-21h-410z" />
<glyph unicode="&#xb3;" horiz-adv-x="430" d="M0 1026h20q2 -78 54.5 -132t130.5 -54q39 0 72.5 15t58 41t39 60.5t14.5 73.5t-14.5 74t-39 60.5t-58 40t-72.5 14.5v22q39 0 72.5 14.5t58 40t39 60.5t14.5 74t-14.5 73.5t-39 60t-58 41t-72.5 15.5q-78 0 -130 -54.5t-55 -131.5h-20q0 43 16.5 80.5t44 65.5t64.5 44 t80 16t80 -16t64.5 -45t44 -67.5t16.5 -81.5v-11q-4 -70 -44 -120t-102 -70q61 -18 101.5 -69.5t44.5 -119.5v-10q0 -43 -16.5 -82t-44 -67.5t-64.5 -45t-80 -16.5t-80 16.5t-64.5 44t-44 65.5t-16.5 81z" />
<glyph unicode="&#xb4;" horiz-adv-x="430" d="M0 1372v21l410 41v-21z" />
<glyph unicode="&#xb7;" horiz-adv-x="40" d="M0 0v205h20v-205h-20z" />
<glyph unicode="&#xb8;" horiz-adv-x="430" d="M0 -195h410v-20h-410v20z" />
<glyph unicode="&#xb9;" horiz-adv-x="430" d="M0 819v21h195v778h-195v20h215v-798h195v-21h-410z" />
<glyph unicode="&#xba;" horiz-adv-x="430" d="M0 1020v407q0 43 16.5 82t44 68t64.5 45t80 16t80 -16t64.5 -45t44 -68t16.5 -82v-407q0 -43 -16.5 -82t-44 -67.5t-64.5 -45t-80 -16.5t-80 16.5t-64.5 45t-44 67.5t-16.5 82zM20 1020q0 -39 14.5 -74t39 -60.5t58.5 -41t73 -15.5t72.5 15.5t58 41t39 60.5t14.5 74v407 q0 39 -14.5 74t-39 60.5t-58 41t-72.5 15.5t-73 -15.5t-58.5 -41t-39 -60.5t-14.5 -74v-407z" />
<glyph unicode="&#xbb;" horiz-adv-x="337" d="M0 205l92 409l-92 410h20l93 -410l-93 -409h-20zM205 205l92 409l-92 410h20l92 -410l-92 -409h-20z" />
<glyph unicode="&#xbc;" horiz-adv-x="1044" d="M0 819v21h195v778h-195v20h215v-798h195v-21h-410zM414 0l184 1638h20l-184 -1638h-20zM571 195v20l306 621h20v-621h127v-20h-127v-195h-20v195h-306zM592 215h285v578z" />
<glyph unicode="&#xbd;" horiz-adv-x="1044" d="M0 819v21h195v778h-195v20h215v-798h195v-21h-410zM414 0l184 1638h20l-184 -1638h-20zM614 0v10l349 484q16 23 28.5 52t12.5 62q0 39 -14.5 74t-39 60.5t-58.5 41t-73 15.5q-78 0 -130 -54.5t-54 -132.5h-21q0 43 16.5 81t44 65.5t64.5 44t80 16.5h8q82 -4 139.5 -64.5 t57.5 -146.5v-18q-6 -63 -45 -113l-332 -457h377v-20h-410z" />
<glyph unicode="&#xbe;" horiz-adv-x="983" d="M0 1026h20q2 -78 54.5 -132t130.5 -54q39 0 72.5 15t58 41t39 60.5t14.5 73.5t-14.5 74t-39 60.5t-58 40t-72.5 14.5v22q39 0 72.5 14.5t58 40t39 60.5t14.5 74t-14.5 73.5t-39 60t-58 41t-72.5 15.5q-78 0 -130 -54.5t-55 -131.5h-20q0 43 16.5 80.5t44 65.5t64.5 44 t80 16t80 -16t64.5 -45t44 -67.5t16.5 -81.5v-11q-4 -70 -44 -120t-102 -70q61 -18 101.5 -69.5t44.5 -119.5v-10q0 -43 -16.5 -82t-44 -67.5t-64.5 -45t-80 -16.5t-80 16.5t-64.5 44t-44 65.5t-16.5 81zM410 0l184 1638h20l-184 -1638h-20zM510 195v20l305 621h21v-621h127 v-20h-127v-195h-21v195h-305zM530 215h285v578z" />
<glyph unicode="&#xbf;" d="M0 415q0 86 31.5 160t86 130t127 89t154.5 35v399h21v-419q-82 2 -155 -28t-127 -83t-86 -126t-32 -157q0 -82 31 -153.5t83 -125.5t124 -85t151 -31q80 0 151 31t123 83t84 123.5t32 151.5h20q0 -84 -33 -158.5t-89 -130t-130 -88t-158 -32.5t-158.5 32.5t-130 89 t-88 132t-32.5 161.5zM399 1433v205h21v-205h-21z" />
<glyph unicode="&#xc0;" d="M0 0l399 1638h21l399 -1638h-22l-199 809h-379l-196 -809h-23zM215 1841v21l410 -41v-21zM225 829h369l-184 758z" />
<glyph unicode="&#xc1;" d="M0 0l399 1638h21l399 -1638h-22l-199 809h-379l-196 -809h-23zM215 1802v21l410 41v-21zM225 829h369l-184 758z" />
<glyph unicode="&#xc2;" d="M0 0l399 1638h21l399 -1638h-22l-199 809h-379l-196 -809h-23zM215 1800v21l205 41l205 -41v-21l-205 41zM225 829h369l-184 758z" />
<glyph unicode="&#xc3;" d="M0 0l399 1638h21l399 -1638h-22l-199 809h-379l-196 -809h-23zM190 1858v20q59 -23 122 -25t128 19q53 14 105.5 14t101.5 -10v-21q-98 25 -198 -2q-66 -23 -132.5 -20.5t-126.5 25.5zM225 829h369l-184 758z" />
<glyph unicode="&#xc4;" d="M0 0l399 1638h21l399 -1638h-22l-199 809h-379l-196 -809h-23zM225 829h369l-184 758zM266 1851v21h103v-21h-103zM471 1851v21h102v-21h-102z" />
<glyph unicode="&#xc5;" d="M0 0l399 1638h21l399 -1638h-22l-199 809h-379l-196 -809h-23zM215 1858q0 43 16.5 81.5t44 67.5t64.5 45t80 16t80 -16t64.5 -45t44 -67.5t16.5 -81.5t-16.5 -82t-44 -67t-64.5 -44t-80 -16t-80 16t-64.5 44t-44 67t-16.5 82zM225 829h369l-184 758zM236 1858 q0 -39 14 -74t38.5 -60.5t58.5 -40t73 -14.5t72.5 14.5t58 40t39 60.5t14.5 74t-14.5 73.5t-39 60t-58 41t-72.5 15.5t-73 -15.5t-58.5 -41t-38.5 -60t-14 -73.5z" />
<glyph unicode="&#xc6;" d="M0 0l399 1638h11h409v-20h-389v-789h389v-20h-389v-789h389v-20h-409v809h-191l-196 -809h-23zM225 829h185v758z" />
<glyph unicode="&#xc7;" d="M0 416v807q0 84 31.5 158.5t87 132t129.5 90t158 34.5q86 0 161.5 -32.5t131 -89t88 -132t32.5 -161.5v-97h-20v97q0 80 -31 151.5t-83 124.5t-122.5 85t-150.5 34q-82 0 -153 -32t-124 -86t-84 -125.5t-31 -151.5v-807q0 -82 31 -154t84 -126t124 -85t153 -31 q80 0 150.5 32t122.5 86.5t83 126t31 151.5v96h20v-96q0 -86 -31.5 -161t-87 -131t-129 -89t-157.5 -35h-8q-84 2 -158 35t-129.5 89t-87 131t-31.5 161zM215 -195h410v-20h-410v20z" />
<glyph unicode="&#xc8;" d="M0 0v1638h819v-20h-799v-789h799v-20h-799v-789h799v-20h-819zM215 1841v21l410 -41v-21z" />
<glyph unicode="&#xc9;" d="M0 0v1638h819v-20h-799v-789h799v-20h-799v-789h799v-20h-819zM215 1800v21l410 41v-21z" />
<glyph unicode="&#xca;" d="M0 0v1638h819v-20h-799v-789h799v-20h-799v-789h799v-20h-819zM215 1800v21l205 41l205 -41v-21l-205 41z" />
<glyph unicode="&#xcb;" d="M0 0v1638h819v-20h-799v-789h799v-20h-799v-789h799v-20h-819zM266 1851v21h103v-21h-103zM471 1851v21h102v-21h-102z" />
<glyph unicode="&#xcc;" d="M0 0v20h399v1598h-399v20h819v-20h-399v-1598h399v-20h-819zM215 1841v21l410 -41v-21z" />
<glyph unicode="&#xcd;" d="M0 0v20h399v1598h-399v20h819v-20h-399v-1598h399v-20h-819zM215 1800v21l410 41v-21z" />
<glyph unicode="&#xce;" d="M0 0v20h399v1598h-399v20h819v-20h-399v-1598h399v-20h-819zM215 1800v21l205 41l205 -41v-21l-205 41z" />
<glyph unicode="&#xcf;" d="M0 0v20h399v1598h-399v20h819v-20h-399v-1598h399v-20h-819zM266 1851v21h103v-21h-103zM471 1851v21h102v-21h-102z" />
<glyph unicode="&#xd0;" horiz-adv-x="634" d="M0 817v21h94v800h115q84 -2 157.5 -34.5t129 -90t87 -132t31.5 -158.5v-807q0 -86 -31.5 -161t-87 -131t-129 -89t-157.5 -35h-115v817h-94zM115 20h90q80 0 151.5 31t123.5 85t83 126t31 154v807q0 80 -31 150.5t-83 124.5t-123.5 86t-151.5 34h-90v-780h90v-21h-90 v-797z" />
<glyph unicode="&#xd1;" d="M0 0v1638h23l776 -1597v1597h20v-1638h-24l-775 1595v-1595h-20zM190 1858v20q59 -23 122 -25t128 19q53 14 105.5 14t101.5 -10v-21q-98 25 -198 -2q-66 -23 -132.5 -20.5t-126.5 25.5z" />
<glyph unicode="&#xd2;" d="M0 416v807q0 84 31.5 158.5t87 132t129.5 90t158 34.5q86 0 161.5 -32.5t131 -89t88 -132t32.5 -161.5v-807q0 -86 -31.5 -161t-87 -131t-129 -89t-157.5 -35h-8q-84 2 -158 35t-129.5 89t-87 131t-31.5 161zM20 416q0 -82 31 -154t84 -126t124 -85t153 -31 q80 0 150.5 32t122.5 86.5t83 126t31 151.5v807q0 80 -31 151.5t-83 124.5t-122.5 85t-150.5 34q-82 0 -153 -32t-124 -86t-84 -125.5t-31 -151.5v-807zM215 1841v21l410 -41v-21z" />
<glyph unicode="&#xd3;" d="M0 416v807q0 84 31.5 158.5t87 132t129.5 90t158 34.5q86 0 161.5 -32.5t131 -89t88 -132t32.5 -161.5v-807q0 -86 -31.5 -161t-87 -131t-129 -89t-157.5 -35h-8q-84 2 -158 35t-129.5 89t-87 131t-31.5 161zM20 416q0 -82 31 -154t84 -126t124 -85t153 -31 q80 0 150.5 32t122.5 86.5t83 126t31 151.5v807q0 80 -31 151.5t-83 124.5t-122.5 85t-150.5 34q-82 0 -153 -32t-124 -86t-84 -125.5t-31 -151.5v-807zM215 1800v21l410 41v-21z" />
<glyph unicode="&#xd4;" d="M0 416v807q0 84 31.5 158.5t87 132t129.5 90t158 34.5q86 0 161.5 -32.5t131 -89t88 -132t32.5 -161.5v-807q0 -86 -31.5 -161t-87 -131t-129 -89t-157.5 -35h-8q-84 2 -158 35t-129.5 89t-87 131t-31.5 161zM20 416q0 -82 31 -154t84 -126t124 -85t153 -31 q80 0 150.5 32t122.5 86.5t83 126t31 151.5v807q0 80 -31 151.5t-83 124.5t-122.5 85t-150.5 34q-82 0 -153 -32t-124 -86t-84 -125.5t-31 -151.5v-807zM215 1800v21l205 41l205 -41v-21l-205 41z" />
<glyph unicode="&#xd5;" d="M0 416v807q0 84 31.5 158.5t87 132t129.5 90t158 34.5q86 0 161.5 -32.5t131 -89t88 -132t32.5 -161.5v-807q0 -86 -31.5 -161t-87 -131t-129 -89t-157.5 -35h-8q-84 2 -158 35t-129.5 89t-87 131t-31.5 161zM20 416q0 -82 31 -154t84 -126t124 -85t153 -31 q80 0 150.5 32t122.5 86.5t83 126t31 151.5v807q0 80 -31 151.5t-83 124.5t-122.5 85t-150.5 34q-82 0 -153 -32t-124 -86t-84 -125.5t-31 -151.5v-807zM190 1858v20q59 -23 122 -25t128 19q53 14 105.5 14t101.5 -10v-21q-98 25 -198 -2q-66 -23 -132.5 -20.5t-126.5 25.5z " />
<glyph unicode="&#xd6;" d="M0 416v807q0 84 31.5 158.5t87 132t129.5 90t158 34.5q86 0 161.5 -32.5t131 -89t88 -132t32.5 -161.5v-807q0 -86 -31.5 -161t-87 -131t-129 -89t-157.5 -35h-8q-84 2 -158 35t-129.5 89t-87 131t-31.5 161zM20 416q0 -82 31 -154t84 -126t124 -85t153 -31 q80 0 150.5 32t122.5 86.5t83 126t31 151.5v807q0 80 -31 151.5t-83 124.5t-122.5 85t-150.5 34q-82 0 -153 -32t-124 -86t-84 -125.5t-31 -151.5v-807zM266 1851v21h103v-21h-103zM471 1851v21h102v-21h-102z" />
<glyph unicode="&#xd7;" horiz-adv-x="618" d="M0 1100l14 14l285 -280l281 284l14 -14l-281 -285l285 -280l-14 -15l-285 281l-281 -285l-14 15l281 284z" />
<glyph unicode="&#xd8;" d="M0 0l80 168q-80 109 -80 248v807q0 84 31.5 158.5t87 132t129.5 90t158 34.5q96 0 178 -39.5t139 -109.5l72 149h24l-82 -168q39 -53 60.5 -115.5t21.5 -131.5v-807q0 -86 -31.5 -161t-87 -131t-129 -89t-157.5 -35h-8q-94 2 -174 42t-136 105l-71 -147h-25zM20 416 q0 -127 70 -228l623 1280q-53 66 -131 107t-170 43q-82 0 -153 -32t-124 -86t-84 -125.5t-31 -151.5v-807zM106 168q53 -68 132 -108t174 -40q80 0 150.5 32t122.5 86.5t83 126t31 151.5v807q0 63 -18.5 119.5t-53.5 105.5z" />
<glyph unicode="&#xd9;" d="M0 416v1222h20v-1222q0 -82 31 -154t84 -126t125 -85t152 -31t150.5 32t122.5 86.5t83 126t31 151.5v1222h20v-1222q0 -86 -31.5 -161t-87 -131t-129 -89t-157.5 -35h-8q-84 2 -158 35t-129.5 89t-87 131t-31.5 161zM215 1841v21l410 -41v-21z" />
<glyph unicode="&#xda;" d="M0 416v1222h20v-1222q0 -82 31 -154t84 -126t125 -85t152 -31t150.5 32t122.5 86.5t83 126t31 151.5v1222h20v-1222q0 -86 -31.5 -161t-87 -131t-129 -89t-157.5 -35h-8q-84 2 -158 35t-129.5 89t-87 131t-31.5 161zM215 1800v21l410 41v-21z" />
<glyph unicode="&#xdb;" d="M0 416v1222h20v-1222q0 -82 31 -154t84 -126t125 -85t152 -31t150.5 32t122.5 86.5t83 126t31 151.5v1222h20v-1222q0 -86 -31.5 -161t-87 -131t-129 -89t-157.5 -35h-8q-84 2 -158 35t-129.5 89t-87 131t-31.5 161zM215 1800v21l205 41l205 -41v-21l-205 41z" />
<glyph unicode="&#xdc;" d="M0 416v1222h20v-1222q0 -82 31 -154t84 -126t125 -85t152 -31t150.5 32t122.5 86.5t83 126t31 151.5v1222h20v-1222q0 -86 -31.5 -161t-87 -131t-129 -89t-157.5 -35h-8q-84 2 -158 35t-129.5 89t-87 131t-31.5 161zM266 1851v21h103v-21h-103zM471 1851v21h102v-21h-102 z" />
<glyph unicode="&#xdd;" d="M0 1638h23l387 -794l387 794h22l-399 -825v-813h-21v813zM215 1800v21l410 41v-21z" />
<glyph unicode="&#xdf;" d="M0 0v1239q2 82 36 155.5t89 127t128 85t157 31.5t158.5 -32.5t130 -89t88 -132t32.5 -161.5q0 -74 -24.5 -140.5t-67.5 -120t-101.5 -91t-125.5 -52.5q68 -16 126 -54t101 -91t67.5 -120t24.5 -140q0 -86 -32.5 -162t-88 -131t-130 -88t-158.5 -33v20q80 0 151.5 31 t123.5 84t83 125t31 154t-31 153.5t-83 126t-124 85t-151 30.5v20h16q78 2 145.5 34t118.5 85t80 124t29 151q0 82 -31 153.5t-83 125.5t-124 85t-151 31q-80 0 -151 -31t-123 -83t-84 -122.5t-32 -150.5v-1231h-20z" />
<glyph unicode="&#xe0;" d="M0 0l399 1638h21l399 -1638h-22l-199 809h-379l-196 -809h-23zM215 1823v20l410 -41v-20zM225 829h369l-184 758z" />
<glyph unicode="&#xe1;" d="M0 0l399 1638h21l399 -1638h-22l-199 809h-379l-196 -809h-23zM215 1782v20l410 41v-20zM225 829h369l-184 758z" />
<glyph unicode="&#xe2;" d="M0 0l399 1638h21l399 -1638h-22l-199 809h-379l-196 -809h-23zM215 1782v20l205 41l205 -41v-20l-205 41zM225 829h369l-184 758z" />
<glyph unicode="&#xe3;" d="M0 0l399 1638h21l399 -1638h-22l-199 809h-379l-196 -809h-23zM190 1839v21q59 -23 122 -25t128 18q53 14 105.5 14.5t101.5 -9.5v-21q-98 25 -198 -2q-66 -23 -132.5 -20.5t-126.5 24.5zM225 829h369l-184 758z" />
<glyph unicode="&#xe4;" d="M0 0l399 1638h21l399 -1638h-22l-199 809h-379l-196 -809h-23zM225 829h369l-184 758zM266 1833v20h103v-20h-103zM471 1833v20h102v-20h-102z" />
<glyph unicode="&#xe5;" d="M0 0l399 1638h21l399 -1638h-22l-199 809h-379l-196 -809h-23zM215 1839q0 43 16.5 82t44 67.5t64.5 45t80 16.5t80 -16.5t64.5 -45t44 -67.5t16.5 -82t-16.5 -82t-44 -66.5t-64.5 -44t-80 -16.5t-80 16.5t-64.5 44t-44 66.5t-16.5 82zM225 829h369l-184 758zM236 1839 q0 -39 14 -73.5t38.5 -60.5t58.5 -40t73 -14t72.5 14t58 40t39 60.5t14.5 73.5t-14.5 74t-39 60.5t-58 41t-72.5 15.5t-73 -15.5t-58.5 -41t-38.5 -60.5t-14 -74z" />
<glyph unicode="&#xe6;" d="M0 0l399 1638h11h409v-20h-389v-789h389v-20h-389v-789h389v-20h-409v809h-191l-196 -809h-23zM225 829h185v758z" />
<glyph unicode="&#xe7;" d="M0 416v807q0 84 31.5 158.5t87 132t129.5 90t158 34.5q86 0 161.5 -32.5t131 -89t88 -132t32.5 -161.5v-97h-20v97q0 80 -31 151.5t-83 124.5t-122.5 85t-150.5 34q-82 0 -153 -32t-124 -86t-84 -125.5t-31 -151.5v-807q0 -82 31 -154t84 -126t124 -85t153 -31 q80 0 150.5 32t122.5 86.5t83 126t31 151.5v96h20v-96q0 -86 -31.5 -161t-87 -131t-129 -89t-157.5 -35h-8q-84 2 -158 35t-129.5 89t-87 131t-31.5 161zM215 -195h410v-20h-410v20z" />
<glyph unicode="&#xe8;" d="M0 0v1638h819v-20h-799v-789h799v-20h-799v-789h799v-20h-819zM215 1823v20l410 -41v-20z" />
<glyph unicode="&#xe9;" d="M0 0v1638h819v-20h-799v-789h799v-20h-799v-789h799v-20h-819zM215 1782v20l410 41v-20z" />
<glyph unicode="&#xea;" d="M0 0v1638h819v-20h-799v-789h799v-20h-799v-789h799v-20h-819zM215 1782v20l205 41l205 -41v-20l-205 41z" />
<glyph unicode="&#xeb;" d="M0 0v1638h819v-20h-799v-789h799v-20h-799v-789h799v-20h-819zM266 1833v20h103v-20h-103zM471 1833v20h102v-20h-102z" />
<glyph unicode="&#xec;" d="M0 0v20h399v1598h-399v20h819v-20h-399v-1598h399v-20h-819zM215 1823v20l410 -41v-20z" />
<glyph unicode="&#xed;" d="M0 0v20h399v1598h-399v20h819v-20h-399v-1598h399v-20h-819zM215 1782v20l410 41v-20z" />
<glyph unicode="&#xee;" d="M0 0v20h399v1598h-399v20h819v-20h-399v-1598h399v-20h-819zM215 1782v20l205 41l205 -41v-20l-205 41z" />
<glyph unicode="&#xef;" d="M0 0v20h399v1598h-399v20h819v-20h-399v-1598h399v-20h-819zM266 1833v20h103v-20h-103zM471 1833v20h102v-20h-102z" />
<glyph unicode="&#xf0;" horiz-adv-x="849" d="M0 416q0 86 33 161.5t88 131t131 88t162 32.5q68 0 129 -20.5t112 -56.5l-352 475h-190v20h176l-289 391h27l288 -391h207v-20h-192l407 -551q43 -53 67.5 -120t24.5 -140q0 -86 -32.5 -162t-89 -132t-132 -89t-161.5 -33t-162 33t-131 89t-88 132t-33 162zM20 416 q0 -82 31 -154t84 -126t125 -85t154 -31t153.5 31t124.5 85t85 126t32 154t-32 153.5t-85 125t-124.5 84t-153.5 30.5t-154 -30.5t-125 -84t-84 -125t-31 -153.5z" />
<glyph unicode="&#xf1;" d="M0 0v1638h23l776 -1597v1597h20v-1638h-24l-775 1595v-1595h-20zM190 1839v21q59 -23 122 -25t128 18q53 14 105.5 14.5t101.5 -9.5v-21q-98 25 -198 -2q-66 -23 -132.5 -20.5t-126.5 24.5z" />
<glyph unicode="&#xf2;" d="M0 416v807q0 84 31.5 158.5t87 132t129.5 90t158 34.5q86 0 161.5 -32.5t131 -89t88 -132t32.5 -161.5v-807q0 -86 -31.5 -161t-87 -131t-129 -89t-157.5 -35h-8q-84 2 -158 35t-129.5 89t-87 131t-31.5 161zM20 416q0 -82 31 -154t84 -126t124 -85t153 -31 q80 0 150.5 32t122.5 86.5t83 126t31 151.5v807q0 80 -31 151.5t-83 124.5t-122.5 85t-150.5 34q-82 0 -153 -32t-124 -86t-84 -125.5t-31 -151.5v-807zM215 1823v20l410 -41v-20z" />
<glyph unicode="&#xf3;" d="M0 416v807q0 84 31.5 158.5t87 132t129.5 90t158 34.5q86 0 161.5 -32.5t131 -89t88 -132t32.5 -161.5v-807q0 -86 -31.5 -161t-87 -131t-129 -89t-157.5 -35h-8q-84 2 -158 35t-129.5 89t-87 131t-31.5 161zM20 416q0 -82 31 -154t84 -126t124 -85t153 -31 q80 0 150.5 32t122.5 86.5t83 126t31 151.5v807q0 80 -31 151.5t-83 124.5t-122.5 85t-150.5 34q-82 0 -153 -32t-124 -86t-84 -125.5t-31 -151.5v-807zM215 1782v20l410 41v-20z" />
<glyph unicode="&#xf4;" d="M0 416v807q0 84 31.5 158.5t87 132t129.5 90t158 34.5q86 0 161.5 -32.5t131 -89t88 -132t32.5 -161.5v-807q0 -86 -31.5 -161t-87 -131t-129 -89t-157.5 -35h-8q-84 2 -158 35t-129.5 89t-87 131t-31.5 161zM20 416q0 -82 31 -154t84 -126t124 -85t153 -31 q80 0 150.5 32t122.5 86.5t83 126t31 151.5v807q0 80 -31 151.5t-83 124.5t-122.5 85t-150.5 34q-82 0 -153 -32t-124 -86t-84 -125.5t-31 -151.5v-807zM215 1782v20l205 41l205 -41v-20l-205 41z" />
<glyph unicode="&#xf5;" d="M0 416v807q0 84 31.5 158.5t87 132t129.5 90t158 34.5q86 0 161.5 -32.5t131 -89t88 -132t32.5 -161.5v-807q0 -86 -31.5 -161t-87 -131t-129 -89t-157.5 -35h-8q-84 2 -158 35t-129.5 89t-87 131t-31.5 161zM20 416q0 -82 31 -154t84 -126t124 -85t153 -31 q80 0 150.5 32t122.5 86.5t83 126t31 151.5v807q0 80 -31 151.5t-83 124.5t-122.5 85t-150.5 34q-82 0 -153 -32t-124 -86t-84 -125.5t-31 -151.5v-807zM190 1839v21q59 -23 122 -25t128 18q53 14 105.5 14.5t101.5 -9.5v-21q-98 25 -198 -2q-66 -23 -132.5 -20.5 t-126.5 24.5z" />
<glyph unicode="&#xf6;" d="M0 416v807q0 84 31.5 158.5t87 132t129.5 90t158 34.5q86 0 161.5 -32.5t131 -89t88 -132t32.5 -161.5v-807q0 -86 -31.5 -161t-87 -131t-129 -89t-157.5 -35h-8q-84 2 -158 35t-129.5 89t-87 131t-31.5 161zM20 416q0 -82 31 -154t84 -126t124 -85t153 -31 q80 0 150.5 32t122.5 86.5t83 126t31 151.5v807q0 80 -31 151.5t-83 124.5t-122.5 85t-150.5 34q-82 0 -153 -32t-124 -86t-84 -125.5t-31 -151.5v-807zM266 1833v20h103v-20h-103zM471 1833v20h102v-20h-102z" />
<glyph unicode="&#xf7;" horiz-adv-x="430" d="M0 389h410v21h-410v-21zM205 0v205h20v-205h-20zM205 614v205h20v-205h-20z" />
<glyph unicode="&#xf8;" d="M0 0l80 168q-80 109 -80 248v807q0 84 31.5 158.5t87 132t129.5 90t158 34.5q96 0 178 -39.5t139 -109.5l72 149h24l-82 -168q39 -53 60.5 -115.5t21.5 -131.5v-807q0 -86 -31.5 -161t-87 -131t-129 -89t-157.5 -35h-8q-94 2 -174 42t-136 105l-71 -147h-25zM20 416 q0 -127 70 -228l623 1280q-53 66 -131 107t-170 43q-82 0 -153 -32t-124 -86t-84 -125.5t-31 -151.5v-807zM106 168q53 -68 132 -108t174 -40q80 0 150.5 32t122.5 86.5t83 126t31 151.5v807q0 63 -18.5 119.5t-53.5 105.5z" />
<glyph unicode="&#xf9;" d="M0 416v1222h20v-1222q0 -82 31 -154t84 -126t125 -85t152 -31t150.5 32t122.5 86.5t83 126t31 151.5v1222h20v-1222q0 -86 -31.5 -161t-87 -131t-129 -89t-157.5 -35h-8q-84 2 -158 35t-129.5 89t-87 131t-31.5 161zM215 1823v20l410 -41v-20z" />
<glyph unicode="&#xfa;" d="M0 416v1222h20v-1222q0 -82 31 -154t84 -126t125 -85t152 -31t150.5 32t122.5 86.5t83 126t31 151.5v1222h20v-1222q0 -86 -31.5 -161t-87 -131t-129 -89t-157.5 -35h-8q-84 2 -158 35t-129.5 89t-87 131t-31.5 161zM215 1782v20l410 41v-20z" />
<glyph unicode="&#xfb;" d="M0 416v1222h20v-1222q0 -82 31 -154t84 -126t125 -85t152 -31t150.5 32t122.5 86.5t83 126t31 151.5v1222h20v-1222q0 -86 -31.5 -161t-87 -131t-129 -89t-157.5 -35h-8q-84 2 -158 35t-129.5 89t-87 131t-31.5 161zM215 1782v20l205 41l205 -41v-20l-205 41z" />
<glyph unicode="&#xfc;" d="M0 416v1222h20v-1222q0 -82 31 -154t84 -126t125 -85t152 -31t150.5 32t122.5 86.5t83 126t31 151.5v1222h20v-1222q0 -86 -31.5 -161t-87 -131t-129 -89t-157.5 -35h-8q-84 2 -158 35t-129.5 89t-87 131t-31.5 161zM266 1833v20h103v-20h-103zM471 1833v20h102v-20h-102 z" />
<glyph unicode="&#xfd;" d="M0 1638h23l387 -794l387 794h22l-399 -825v-813h-21v813zM215 1782v20l410 41v-20z" />
<glyph unicode="&#xff;" d="M0 1638h23l387 -794l387 794h22l-399 -825v-813h-21v813zM266 1833v20h103v-20h-103zM471 1833v20h102v-20h-102z" />
<glyph unicode="&#x152;" d="M0 416v807q0 84 31.5 158.5t87 132t129.5 90t158 34.5h413v-20h-389v-789h389v-20h-389v-789h389v-20h-413q-84 2 -158 35t-129.5 89t-87 131t-31.5 161zM20 416q0 -82 31 -154t83 -126t123 -85t153 -31v1598q-82 -2 -153 -34t-123 -86t-83 -124.5t-31 -150.5v-807z" />
<glyph unicode="&#x153;" d="M0 416v807q0 84 31.5 158.5t87 132t129.5 90t158 34.5h413v-20h-389v-789h389v-20h-389v-789h389v-20h-413q-84 2 -158 35t-129.5 89t-87 131t-31.5 161zM20 416q0 -82 31 -154t83 -126t123 -85t153 -31v1598q-82 -2 -153 -34t-123 -86t-83 -124.5t-31 -150.5v-807z" />
<glyph unicode="&#x178;" d="M0 1638h23l387 -794l387 794h22l-399 -825v-813h-21v813zM266 1851v21h103v-21h-103zM471 1851v21h102v-21h-102z" />
<glyph unicode="&#x2c6;" horiz-adv-x="430" d="M0 1782v20l205 41l205 -41v-20l-205 41z" />
<glyph unicode="&#x2dc;" horiz-adv-x="477" d="M0 1839v21q59 -23 121.5 -25t128.5 18q53 14 105.5 14.5t101.5 -9.5v-21q-99 25 -199 -2q-66 -23 -132.5 -20.5t-125.5 24.5z" />
<glyph unicode="&#x2000;" horiz-adv-x="1034" />
<glyph unicode="&#x2001;" horiz-adv-x="2068" />
<glyph unicode="&#x2002;" horiz-adv-x="1034" />
<glyph unicode="&#x2003;" horiz-adv-x="2068" />
<glyph unicode="&#x2004;" horiz-adv-x="689" />
<glyph unicode="&#x2005;" horiz-adv-x="517" />
<glyph unicode="&#x2006;" horiz-adv-x="344" />
<glyph unicode="&#x2007;" horiz-adv-x="344" />
<glyph unicode="&#x2008;" horiz-adv-x="258" />
<glyph unicode="&#x2009;" horiz-adv-x="413" />
<glyph unicode="&#x200a;" horiz-adv-x="114" />
<glyph unicode="&#x2010;" d="M0 799v20h819v-20h-819z" />
<glyph unicode="&#x2011;" d="M0 799v20h819v-20h-819z" />
<glyph unicode="&#x2012;" d="M0 799v20h819v-20h-819z" />
<glyph unicode="&#x2013;" d="M0 799v20h819v-20h-819z" />
<glyph unicode="&#x2014;" d="M0 799v20h819v-20h-819z" />
<glyph unicode="&#x2018;" horiz-adv-x="81" d="M0 1229l41 409h20l-41 -409h-20z" />
<glyph unicode="&#x2019;" horiz-adv-x="81" d="M0 1229l41 409h20l-41 -409h-20z" />
<glyph unicode="&#x201a;" horiz-adv-x="81" d="M0 0l41 410h20l-41 -410h-20z" />
<glyph unicode="&#x201c;" horiz-adv-x="225" d="M0 1229l41 409h20l-41 -409h-20zM143 1229l41 409h21l-41 -409h-21z" />
<glyph unicode="&#x201d;" horiz-adv-x="225" d="M0 1229l41 409h20l-41 -409h-20zM143 1229l41 409h21l-41 -409h-21z" />
<glyph unicode="&#x201e;" horiz-adv-x="225" d="M0 0l41 410h20l-41 -410h-20zM143 0l41 410h21l-41 -410h-21z" />
<glyph unicode="&#x2022;" horiz-adv-x="430" d="M0 614q0 43 16.5 81t44 65.5t64.5 43t80 15.5t80 -15.5t64.5 -43t44 -65.5t16.5 -81t-16.5 -80.5t-44 -65.5t-64.5 -43t-80 -15t-80 15t-64.5 43t-44 65.5t-16.5 80.5z" />
<glyph unicode="&#x2026;" horiz-adv-x="225" d="M0 0v205h20v-205h-20zM92 0v205h21v-205h-21zM184 0v205h21v-205h-21z" />
<glyph unicode="&#x202f;" horiz-adv-x="413" />
<glyph unicode="&#x2039;" horiz-adv-x="133" d="M0 614l92 410h21l-93 -410l93 -409h-21z" />
<glyph unicode="&#x203a;" horiz-adv-x="133" d="M0 205l92 409l-92 410h20l93 -410l-93 -409h-20z" />
<glyph unicode="&#x205f;" horiz-adv-x="517" />
<glyph unicode="&#x20ac;" d="M0 416v807q0 84 31.5 158.5t87 132t129.5 90t158 34.5q86 0 160.5 -32.5t130 -88t88 -130t34.5 -158.5h-20q-2 80 -33 149.5t-83 122.5t-121.5 84t-149.5 33q-82 0 -153 -32t-124 -86t-84 -125.5t-31 -151.5v-199h594v-20h-594v-390h594v-20h-594v-178q0 -82 31 -154 t84 -126t124 -85t153 -31q80 0 149.5 32t121.5 84t83 123t33 151h20q-2 -86 -34.5 -161t-88 -130.5t-130 -87t-160.5 -31.5q-84 2 -158 35t-129.5 89t-87 131t-31.5 161z" />
<glyph unicode="&#x2122;" d="M0 1618v20h389v-20h-174v-799h-20v799h-195zM410 819v819h22l182 -376l183 376h22v-819h-20v776l-174 -356h-23l-172 356v-776h-20z" />
<glyph unicode="&#x25fc;" horiz-adv-x="1638" d="M0 0v1638h1638v-1638h-1638z" />
</font>
</defs>
</svg>
